<svg width="54" height="52" viewBox="0 0 54 52" fill="none" xmlns="http://www.w3.org/2000/svg">
<path d="M0 6.75C0 4.95979 0.711159 3.2429 1.97703 1.97703C3.2429 0.711159 4.95979 0 6.75 0L47.25 0C49.0402 0 50.7571 0.711159 52.023 1.97703C53.2888 3.2429 54 4.95979 54 6.75V33.75C54 35.5402 53.2888 37.2571 52.023 38.523C50.7571 39.7888 49.0402 40.5 47.25 40.5H14.8973C14.0022 40.5002 13.1439 40.8559 12.5111 41.4889L2.88225 51.1177C2.64644 51.3542 2.3458 51.5153 2.01837 51.5808C1.69095 51.6462 1.35146 51.6131 1.04287 51.4855C0.734289 51.358 0.470482 51.1418 0.284841 50.8642C0.0992 50.5867 7.09252e-05 50.2603 0 49.9264L0 6.75ZM11.8125 10.125C11.3649 10.125 10.9357 10.3028 10.6193 10.6193C10.3028 10.9357 10.125 11.3649 10.125 11.8125C10.125 12.2601 10.3028 12.6893 10.6193 13.0057C10.9357 13.3222 11.3649 13.5 11.8125 13.5H42.1875C42.6351 13.5 43.0643 13.3222 43.3807 13.0057C43.6972 12.6893 43.875 12.2601 43.875 11.8125C43.875 11.3649 43.6972 10.9357 43.3807 10.6193C43.0643 10.3028 42.6351 10.125 42.1875 10.125H11.8125ZM11.8125 18.5625C11.3649 18.5625 10.9357 18.7403 10.6193 19.0568C10.3028 19.3732 10.125 19.8024 10.125 20.25C10.125 20.6976 10.3028 21.1268 10.6193 21.4432C10.9357 21.7597 11.3649 21.9375 11.8125 21.9375H42.1875C42.6351 21.9375 43.0643 21.7597 43.3807 21.4432C43.6972 21.1268 43.875 20.6976 43.875 20.25C43.875 19.8024 43.6972 19.3732 43.3807 19.0568C43.0643 18.7403 42.6351 18.5625 42.1875 18.5625H11.8125ZM11.8125 27C11.3649 27 10.9357 27.1778 10.6193 27.4943C10.3028 27.8107 10.125 28.2399 10.125 28.6875C10.125 29.1351 10.3028 29.5643 10.6193 29.8807C10.9357 30.1972 11.3649 30.375 11.8125 30.375H28.6875C29.1351 30.375 29.5643 30.1972 29.8807 29.8807C30.1972 29.5643 30.375 29.1351 30.375 28.6875C30.375 28.2399 30.1972 27.8107 29.8807 27.4943C29.5643 27.1778 29.1351 27 28.6875 27H11.8125Z" fill="#2B51A6"/>
</svg>
