<svg width="21" height="23" viewBox="0 0 21 23" fill="none" xmlns="http://www.w3.org/2000/svg">
<path d="M19.8165 10.1327L3.36146 0.923758C3.08728 0.763872 2.77157 0.689599 2.45487 0.710481C2.13816 0.731362 1.83493 0.846444 1.58412 1.04095C1.32797 1.24304 1.142 1.52069 1.05259 1.83448C0.96319 2.14827 0.974904 2.48224 1.08607 2.78899L3.83021 10.455C3.85797 10.5314 3.90835 10.5976 3.97464 10.6447C4.04093 10.6918 4.11999 10.7176 4.20131 10.7187H11.2521C11.4548 10.7155 11.6512 10.7893 11.8017 10.9252C11.9521 11.0611 12.0454 11.2491 12.0626 11.4511C12.0693 11.5577 12.0541 11.6646 12.0178 11.7651C11.9815 11.8656 11.925 11.9576 11.8518 12.0354C11.7786 12.1132 11.6902 12.1751 11.5921 12.2174C11.494 12.2597 11.3882 12.2814 11.2814 12.2812H4.20131C4.11999 12.2822 4.04093 12.308 3.97464 12.3551C3.90835 12.4022 3.85797 12.4684 3.83021 12.5449L1.08607 20.2109C1.00373 20.447 0.978924 20.6994 1.0137 20.9471C1.04848 21.1948 1.14184 21.4306 1.28604 21.6349C1.43023 21.8393 1.6211 22.0063 1.84278 22.1221C2.06447 22.2379 2.31058 22.2991 2.56068 22.3007C2.82682 22.2995 3.08852 22.2324 3.3224 22.1054L19.8165 12.8671C20.0582 12.7299 20.2591 12.5311 20.3989 12.2909C20.5387 12.0507 20.6124 11.7778 20.6124 11.4999C20.6124 11.222 20.5387 10.9491 20.3989 10.709C20.2591 10.4688 20.0582 10.27 19.8165 10.1327V10.1327Z" fill="#2B51A6"/>
</svg>
